<?xml version="1.0" encoding="UTF-8"?>
<svg id="Layer_1" data-name="Layer 1" xmlns="http://www.w3.org/2000/svg" viewBox="0 0 349 220">
  <g>
    <path d="M66.88,106.3c-3.24,0-6.04-.84-8.39-2.52-2.61-1.9-3.91-4.44-3.91-7.6s.99-5.63,2.96-7.6c1.97-1.98,4.49-2.96,7.55-2.96,2.09,0,3.88.52,5.37,1.57,1.68,1.16,2.52,2.78,2.52,4.86,0,.67-.19,1.25-.56,1.73-.45.63-1.01.95-1.68.95-.71,0-1.06-.35-1.06-1.06,0-.6.32-.93.95-1.01.26,0,.39-.19.39-.56,0-1.42-.63-2.53-1.9-3.35-1.16-.75-2.5-1.12-4.03-1.12-2.5,0-4.53.8-6.09,2.4-1.57,1.6-2.35,3.65-2.35,6.15s1.1,4.68,3.3,6.21c1.94,1.27,4.34,1.9,7.21,1.9,9.58,0,15.99-7.36,19.23-22.09h-7.83c-.63,0-.95-.34-.95-1.01s.32-1.01.95-1.01h8.22c.89-3.69,2.31-6.9,4.25-9.62-1.3-.26-3.84-1.1-7.6-2.52-3.06-1.19-5.89-1.79-8.5-1.79-2.95,0-5.52.71-7.72,2.12-2.46,1.6-3.69,3.77-3.69,6.49,0,1.16.29,2.12.87,2.91.58.78,1.39,1.17,2.43,1.17.52,0,1.06-.14,1.62-.42s.95-.42,1.17-.42c.6,0,.89.32.89.95,0,.48-.43.93-1.29,1.34-.78.37-1.49.56-2.12.56-1.72,0-3.08-.58-4.08-1.73-1.01-1.15-1.51-2.61-1.51-4.36,0-3.32,1.43-5.96,4.31-7.94,2.57-1.79,5.57-2.68,9-2.68,2.8,0,5.61.5,8.44,1.51l4.58,1.79c.93.34,1.79.62,2.57.84.78.22,1.51.37,2.18.45,1.71-1.83,3.5-2.74,5.37-2.74,1.45,0,2.18.61,2.18,1.84,0,.89-.73,1.66-2.18,2.29-1.23.52-2.35.78-3.35.78h-.42c-.21,0-.48-.02-.81-.06-2.09,2.42-3.58,5.5-4.47,9.23h2.29c.67,0,1.01.34,1.01,1.01s-.34,1.01-1.01,1.01h-2.74c-3.43,16.07-10.62,24.1-21.58,24.1Z" stroke="#000" stroke-miterlimit="10" stroke-width=".5"/>
    <path d="M99.05,103.4c-2.5,0-4.43-.78-5.8-2.35-1.37-1.57-2.05-3.6-2.05-6.1,0-3.73,1.25-6.77,3.75-9.1,2.17-2.07,4.55-3.1,7.15-3.1,1.37,0,2.48.34,3.33,1.02.85.68,1.27,1.66,1.27,2.93,0,2-1.13,3.63-3.4,4.9-1.97,1.07-4.22,1.6-6.75,1.6-1.37,0-2.48-.17-3.35-.5-.07.37-.12.74-.17,1.12-.05.38-.08.76-.08,1.12,0,2.03.52,3.69,1.55,4.97,1.03,1.28,2.53,1.93,4.5,1.93,3.53,0,6.35-1.65,8.45-4.95.27-.4.5-.72.7-.95.2-.23.43-.35.7-.35.33,0,.5.2.5.6,0,.23-.02.42-.07.55-.05.13-.09.23-.12.3-1.13,1.93-2.6,3.48-4.4,4.62-1.8,1.15-3.7,1.73-5.7,1.73ZM96.4,91.5c2.13,0,4.03-.42,5.7-1.25,1.93-.93,2.9-2.15,2.9-3.65s-1.02-2.15-3.05-2.15c-1.83,0-3.53.68-5.1,2.05-1.4,1.2-2.47,2.72-3.2,4.55.77.3,1.68.45,2.75.45Z" stroke="#000" stroke-miterlimit="10" stroke-width=".75"/>
    <path d="M120.7,103.4c-2.5,0-4.43-.78-5.8-2.35-1.37-1.57-2.05-3.6-2.05-6.1,0-3.73,1.25-6.77,3.75-9.1,2.17-2.07,4.55-3.1,7.15-3.1,1.37,0,2.48.34,3.33,1.02.85.68,1.27,1.66,1.27,2.93,0,2-1.13,3.63-3.4,4.9-1.97,1.07-4.22,1.6-6.75,1.6-1.37,0-2.48-.17-3.35-.5-.07.37-.12.74-.17,1.12-.05.38-.08.76-.08,1.12,0,2.03.52,3.69,1.55,4.97,1.03,1.28,2.53,1.93,4.5,1.93,3.53,0,6.35-1.65,8.45-4.95.27-.4.5-.72.7-.95.2-.23.43-.35.7-.35.33,0,.5.2.5.6,0,.23-.02.42-.07.55-.05.13-.09.23-.12.3-1.13,1.93-2.6,3.48-4.4,4.62-1.8,1.15-3.7,1.73-5.7,1.73ZM118.05,91.5c2.13,0,4.03-.42,5.7-1.25,1.93-.93,2.9-2.15,2.9-3.65s-1.02-2.15-3.05-2.15c-1.83,0-3.53.68-5.1,2.05-1.4,1.2-2.47,2.72-3.2,4.55.77.3,1.68.45,2.75.45Z" stroke="#000" stroke-miterlimit="10" stroke-width=".75"/>
    <path d="M138.45,103.55c-2.77,0-4.27-1.9-4.5-5.7-.17-2.83.7-7.1,2.6-12.8,1.7-5.07,3.38-9.1,5.05-12.1,1.97-3.57,3.83-5.35,5.6-5.35,1.5,0,2.25,1.2,2.25,3.6,0,2.53-.97,5.48-2.9,8.85-3.07,5.33-6.47,9.52-10.2,12.55-.17.87-.3,1.67-.4,2.42s-.15,1.46-.15,2.12c0,3.17.98,4.75,2.95,4.75,1.17,0,2.31-.32,3.43-.98,1.12-.65,2.36-1.99,3.72-4.02.1-.13.31-.41.62-.82.32-.42.59-.62.83-.62.33,0,.5.22.5.65,0,.07-.02.2-.05.4-.03.2-.1.38-.2.55-.53,1.03-1.23,2.05-2.1,3.05-.87,1-1.89,1.82-3.07,2.48-1.18.65-2.51.97-3.98.97ZM137.15,89.6c3-3.07,5.62-6.55,7.85-10.45,1.87-3.27,2.8-6.03,2.8-8.3,0-1.07-.23-1.6-.7-1.6-.33,0-.78.28-1.35.85-1.17,1.27-2.42,3.43-3.75,6.5-.83,1.87-1.65,3.88-2.45,6.05-.8,2.17-1.6,4.48-2.4,6.95Z" stroke="#000" stroke-miterlimit="10" stroke-width=".75"/>
    <path d="M156.55,103.75c-1.87,0-3.43-.48-4.7-1.45-1.43-1.1-2.15-2.58-2.15-4.45,0-1.2.3-2.35.9-3.45.6-1.1,1.42-1.95,2.45-2.55.67-.97,1.45-2.02,2.35-3.15.9-1.13,1.92-2.37,3.05-3.7-.4-1.07-.6-2.07-.6-3,0-1.1.2-2.07.6-2.9.53-1.13,1.33-1.7,2.4-1.7,1.57,0,2.35.82,2.35,2.45,0,1.03-.27,1.92-.8,2.65l-1.9,2.7,3.15,4.4c.6.83,1.04,1.68,1.33,2.55.28.87.42,1.72.42,2.55,0,2.5-.85,4.63-2.55,6.4-1.7,1.77-3.8,2.65-6.3,2.65ZM156.5,102c2.1,0,3.82-.7,5.15-2.1,1.37-1.43,2.05-3.17,2.05-5.2,0-1.4-.53-2.83-1.6-4.3l-2.8-3.8-3.7,4.6c2.33.13,3.5,1.28,3.5,3.45,0,.67-.23,1.33-.7,2-.23.33-.53.5-.9.5-.47,0-.7-.3-.7-.9,0-.2.1-.47.3-.8.2-.33.3-.6.3-.8,0-1.17-.63-1.75-1.9-1.75-.4,0-.78.05-1.15.15.03.7-.24,1.48-.83,2.33-.58.85-1.27,1.56-2.08,2.12.2,3,1.88,4.5,5.05,4.5ZM159.75,83.5c.47-.53.87-1.07,1.2-1.6.47-.87.7-1.53.7-2,0-.5-.27-.75-.8-.75-.9,0-1.35.97-1.35,2.9,0,.23.02.47.07.7.05.23.11.48.18.75Z" stroke="#000" stroke-miterlimit="10" stroke-width=".75"/>
    <path d="M212.65,107.15c-4.23,0-7.93-2.68-13.1-6.05-3.07,3.17-6.78,4.75-11.15,4.75-1.73,0-3.37-.31-4.9-.93-1.53-.62-2.78-1.5-3.75-2.65s-1.45-2.52-1.45-4.12c0-1.8.64-3.13,1.93-4,1.28-.87,2.79-1.3,4.52-1.3,2.5,0,5.07.65,7.7,1.95.57.27,1.42.74,2.55,1.43,1.13.68,2.57,1.57,4.3,2.67.67-.8,1.32-1.74,1.95-2.82.63-1.08,1.2-2.33,1.7-3.73l2.5-7.15c-2.63-.03-4.88-.62-6.75-1.75-2.27-1.37-3.4-3.3-3.4-5.8,0-1.33.37-2.57,1.1-3.73.73-1.15,1.62-1.99,2.65-2.52.2-.1.42-.15.65-.15.57,0,.85.27.85.8,0,.37-.23.65-.7.85-.93.43-1.65,1.1-2.15,2s-.75,1.82-.75,2.75c0,2.07,1.02,3.6,3.05,4.6,1.57.77,3.55,1.18,5.95,1.25.97-2.9,1.85-5.35,2.65-7.35.8-2,1.5-3.57,2.1-4.7,2.67-5,5.67-7.5,9-7.5,4.03,0,6.05,2.02,6.05,6.05,0,2.13-.53,4.1-1.6,5.9-1.07,1.8-2.49,3.37-4.27,4.7-1.78,1.33-3.77,2.39-5.98,3.17-2.2.78-4.43,1.26-6.7,1.43l-2.7,7.6c-.53,1.5-1.13,2.83-1.8,4-.67,1.17-1.35,2.18-2.05,3.05,4.87,3.07,8.22,5.6,12.05,5.6,2.27,0,4.4-1.47,4.4-2.4,0-.63.32-.95.95-.95.5,0,.75.25.75.75,0,2.2-2.72,4.3-6.15,4.3ZM188.35,104.15c3.87,0,7.12-1.32,9.75-3.95-5.33-3.77-9.78-5.65-13.35-5.65-1.33,0-2.46.3-3.38.9-.92.6-1.38,1.52-1.38,2.75,0,1.3.42,2.39,1.27,3.27.85.88,1.92,1.55,3.2,2,1.28.45,2.57.67,3.88.67ZM207.75,83.4c2.03-.2,4.01-.66,5.92-1.38,1.92-.72,3.65-1.66,5.2-2.82,1.55-1.17,2.78-2.53,3.7-4.08.92-1.55,1.38-3.24,1.38-5.08,0-3-1.43-4.5-4.3-4.5-2.63,0-5.18,2.4-7.65,7.2-.57,1.07-1.2,2.49-1.9,4.27-.7,1.78-1.48,3.91-2.35,6.38Z" stroke="#000" stroke-miterlimit="10" stroke-width=".75"/>
    <path d="M226.29,103.1c-1.13,0-2.08-.42-2.85-1.25-.77-.83-1.15-1.87-1.15-3.1,0-1.5.57-3.48,1.7-5.95,1.13-2.47,1.7-4.43,1.7-5.9,0-.53.28-.8.85-.8s.85.43.85,1.3c0,1.2-.57,3.05-1.7,5.55-1.13,2.5-1.7,4.38-1.7,5.65,0,.77.24,1.42.73,1.98.48.55,1.07.82,1.77.82,1.23,0,2.35-.43,3.35-1.3,1-.87,1.92-1.93,2.75-3.2.37-.57.65-.95.85-1.15.2-.2.4-.3.6-.3.43,0,.65.17.65.5,0,.2-.13.57-.4,1.1-.93,1.7-2.08,3.13-3.45,4.3-1.37,1.17-2.88,1.75-4.55,1.75ZM228.54,82.95c-1.17,0-1.75-.58-1.75-1.75s.58-1.75,1.75-1.75,1.75.58,1.75,1.75-.58,1.75-1.75,1.75Z" stroke="#000" stroke-miterlimit="10" stroke-width=".75"/>
    <path d="M249.89,102.91c-2.43,0-4.3-1.12-5.6-3.35-1.03-1.87-1.53-4.07-1.5-6.6-.47,1.03-.9,2.02-1.3,2.98-.4.95-.77,1.88-1.1,2.77-.13.4-.3.88-.5,1.45-.2.57-.45,1.23-.75,2-.13.3-.35.45-.65.45-.63,0-.95-.28-.95-.85,0-4.17,1.7-10.62,5.1-19.35-.93-.53-1.4-1.22-1.4-2.05,0-.57.3-.85.9-.85.33,0,.72.4,1.15,1.2.33-.83.78-1.9,1.35-3.2.57-1.3,1.27-2.82,2.1-4.55,2.63-4.93,5.13-7.4,7.5-7.4,1.63,0,2.45,1.15,2.45,3.45,0,1.7-.5,3.65-1.5,5.85-1.07,2.33-2.42,4.22-4.05,5.65-1.83,1.7-3.8,2.55-5.9,2.55h-.5c-.17,0-.33-.02-.5-.05-.63,1.6-1.2,3.18-1.7,4.75-.5,1.57-.97,3.12-1.4,4.65,2-4.27,4.18-7.13,6.55-8.6,1.47-.9,2.8-1.35,4-1.35,1.07,0,1.91.35,2.52,1.05.62.7.92,1.58.92,2.65,0,2.03-.92,3.72-2.75,5.05-1.63,1.23-3.55,1.85-5.75,1.85-.77,0-1.48-.1-2.15-.3-.1,2.1.25,3.95,1.05,5.55,1,1.9,2.45,2.85,4.35,2.85,1.03,0,1.88-.2,2.55-.6.67-.4,1.27-.95,1.8-1.65.53-.7,1.1-1.5,1.7-2.4.13-.17.32-.4.57-.7.25-.3.48-.45.68-.45.37,0,.55.22.55.65,0,.07,0,.18-.02.33-.02.15-.04.26-.08.32-.5.93-1.11,1.88-1.82,2.85-.72.97-1.57,1.77-2.55,2.43-.98.65-2.11.97-3.38.97ZM246.14,91.41c1.6,0,3.12-.43,4.55-1.3,1.63-1,2.5-2.28,2.6-3.85.07-1.4-.5-2.1-1.7-2.1-.8,0-1.78.4-2.95,1.2-.87.6-1.68,1.36-2.45,2.27-.77.92-1.48,1.99-2.15,3.23.47.37,1.17.55,2.1.55ZM244.84,81.36c3.57-.07,6.42-2.32,8.55-6.75,1.03-2.1,1.55-3.95,1.55-5.55,0-1.17-.3-1.75-.9-1.75-1.5,0-3.42,2.22-5.75,6.65-.63,1.23-1.24,2.47-1.83,3.7-.58,1.23-1.12,2.47-1.62,3.7Z" stroke="#000" stroke-miterlimit="10" stroke-width=".75"/>
    <path d="M268.19,103.01c-2.5,0-4.43-.78-5.8-2.35-1.37-1.57-2.05-3.6-2.05-6.1,0-3.73,1.25-6.77,3.75-9.1,2.17-2.07,4.55-3.1,7.15-3.1,1.37,0,2.48.34,3.33,1.02.85.68,1.27,1.66,1.27,2.93,0,2-1.13,3.63-3.4,4.9-1.97,1.07-4.22,1.6-6.75,1.6-1.37,0-2.48-.17-3.35-.5-.07.37-.12.74-.17,1.12-.05.38-.08.76-.08,1.12,0,2.03.52,3.69,1.55,4.97,1.03,1.28,2.53,1.93,4.5,1.93,3.53,0,6.35-1.65,8.45-4.95.27-.4.5-.72.7-.95.2-.23.43-.35.7-.35.33,0,.5.2.5.6,0,.23-.02.42-.07.55-.05.13-.09.23-.12.3-1.13,1.93-2.6,3.48-4.4,4.62-1.8,1.15-3.7,1.73-5.7,1.73ZM265.54,91.11c2.13,0,4.03-.42,5.7-1.25,1.93-.93,2.9-2.15,2.9-3.65s-1.02-2.15-3.05-2.15c-1.83,0-3.53.68-5.1,2.05-1.4,1.2-2.47,2.72-3.2,4.55.77.3,1.68.45,2.75.45Z" stroke="#000" stroke-miterlimit="10" stroke-width=".75"/>
    <g>
      <path d="M284.04,102.26c-.97,0-1.45-.48-1.45-1.45s.48-1.45,1.45-1.45,1.4.48,1.4,1.45-.47,1.45-1.4,1.45Z" stroke-width="0"/>
      <path d="M290.64,102.26c-.97,0-1.45-.48-1.45-1.45s.48-1.45,1.45-1.45,1.4.48,1.4,1.45-.47,1.45-1.4,1.45Z" stroke-width="0"/>
      <path d="M297.24,102.26c-.97,0-1.45-.48-1.45-1.45s.48-1.45,1.45-1.45,1.4.48,1.4,1.45-.47,1.45-1.4,1.45Z" stroke-width="0"/>
    </g>
  </g>
  <g>
    <path d="M200.42,147.01v-8.35h.44v3.95h5.54v-3.95h.44v8.35h-.44v-3.96h-5.54v3.96h-.44Z" stroke="#000" stroke-miterlimit="10" stroke-width=".5"/>
    <path d="M47.88,141.51l-.77-2.86h4.96l-2.24,8.35h-.47l-1.25-4.64-1.25,4.64h-.47l-2.24-8.35h.46l2.02,7.52,1.26-4.67ZM51.5,139.1h-3.8l.65,2.41,1.26,4.67,1.9-7.08Z" stroke="#000" stroke-miterlimit="10" stroke-width=".5"/>
    <path d="M83.99,138.65h6.08v2.11h-3.9v1.06h3.24v2h-3.24v1.07h3.9v2.11h-6.08v-8.35Z" stroke-width="0"/>
    <path d="M129.81,147.01h-7.87l3.94-8.53,3.94,8.53ZM122.63,146.56h6.48l-3.24-7.03-3.24,7.03Z" stroke="#000" stroke-miterlimit="10" stroke-width=".5"/>
    <path d="M168.12,138.65v.44h-3.16v7.91h-.43v-7.91h-3.16v-.44h6.74Z" stroke="#000" stroke-miterlimit="10" stroke-width=".5"/>
    <path d="M239.51,138.65h6.08v2.11h-3.9v1.06h3.24v2h-3.24v1.07h3.9v2.11h-6.08v-8.35Z" stroke-width="0"/>
    <path d="M284.85,147.01h-6.42v-8.35h3.25c.7,0,1.26.12,1.7.37.43.24.77.57,1.01.98s.36.88.36,1.38c0,.62-.19,1.18-.58,1.67-.38.49-.87.82-1.45.98l2.12,2.96ZM278.87,139.39v4.31h3.08l-3.08-4.31ZM278.87,146.56h5.14l-1.75-2.44h-.37s-3.01.01-3.01.01v2.42ZM279.18,139.1l3.26,4.56c.54-.11.98-.38,1.33-.8.35-.42.53-.91.53-1.46,0-.44-.11-.84-.32-1.2s-.52-.64-.91-.83c-.35-.18-.81-.26-1.38-.26h-2.51Z" stroke="#000" stroke-miterlimit="10" stroke-width=".5"/>
    <g>
      <path d="M72.07,157.64l-2.24,8.35h-.47l-1.25-4.64-1.25,4.64h-.47l-2.24-8.35h.46l2.02,7.52,1.26-4.67-.77-2.86h.46l.77,2.86,1.26,4.67,2.02-7.52h.46Z" stroke="#000" stroke-miterlimit="10" stroke-width=".5"/>
      <path d="M104.29,159.75v-2.11h5.4v2.11h-2.48v4.13h2.48v2.11h-5.4v-2.11h2.48v-4.13h-2.48Z" stroke="#000" stroke-miterlimit="10" stroke-width=".5"/>
      <path d="M142.87,165.99v-8.35h3.11c.61,0,1.17.15,1.69.46.52.3.93.71,1.23,1.23.3.52.46,1.08.46,1.69v1.61c0,.61-.15,1.17-.46,1.69-.3.52-.71.93-1.23,1.23-.52.3-1.08.46-1.69.46h-3.11Z" stroke="#000" stroke-miterlimit="10" stroke-width=".5"/>
      <path d="M187.69,164.27c-.21.55-.61,1.01-1.18,1.36s-1.18.53-1.82.53-1.2-.16-1.73-.47-.95-.74-1.25-1.29c-.31-.55-.46-1.15-.46-1.81v-1.68c0-.64.15-1.22.46-1.75.31-.53.72-.95,1.25-1.25s1.1-.46,1.73-.46c.52,0,1,.09,1.43.26s.8.42,1.1.75c.25.27.45.58.61.91.16.34.23.68.23,1.02h-.43c0-.3-.08-.59-.22-.88-.14-.29-.32-.55-.53-.78-.54-.56-1.26-.84-2.18-.84-.55,0-1.06.13-1.52.4s-.82.63-1.09,1.09c-.26.46-.4.97-.4,1.53v1.68c0,.58.13,1.11.4,1.59s.63.85,1.09,1.12c.46.27.96.41,1.51.41s1.06-.13,1.52-.4.82-.63,1.09-1.09c.26-.46.4-.96.4-1.51v-.42h-3v-.44h3.45v4.13h-.45v-1.72Z" stroke="#000" stroke-miterlimit="10" stroke-width=".5"/>
      <path d="M220.75,157.64h5.88v.44h-5.44v3.38h4.73v.44h-4.73v3.64h5.44v.44h-5.88v-8.35Z" stroke="#000" stroke-miterlimit="10" stroke-width=".5"/>
      <path d="M262.3,165.99v-6.24h-3.16v-2.11h6.74v2.11h-3.16v6.24h-.43Z" stroke="#000" stroke-miterlimit="10" stroke-width=".5"/>
    </g>
    <g>
      <path d="M72.05,128.02h-7.87l3.94-8.53,3.94,8.53ZM64.87,127.58h6.48l-3.24-7.03-3.24,7.03Z" stroke="#000" stroke-miterlimit="10" stroke-width=".5"/>
      <path d="M103.74,128.01v-8.35h.47l5.83,5.68v-5.68h.44v8.35h-6.74Z" stroke="#000" stroke-miterlimit="10" stroke-width=".5"/>
      <path d="M184.54,128.02v-6.24h-3.16v-2.11h6.74v2.11h-3.16v6.24h-.43Z" stroke="#000" stroke-miterlimit="10" stroke-width=".5"/>
      <path d="M259.63,119.67h5.88v.44h-5.44v3.38h4.73v.44h-4.73v3.64h5.44v.44h-5.88v-8.35Z" stroke="#000" stroke-miterlimit="10" stroke-width=".5"/>
      <path d="M304.34,120.94c.28.44.41.93.41,1.46,0,.62-.19,1.18-.57,1.67-.38.49-.87.82-1.46.98l2.12,2.96h-.53l-2.05-2.88h-.38s-3.01.01-3.01.01v2.87h-.44v-8.35h3.18c.35,0,.65.02.91.07.25.04.48.11.69.21.48.22.86.56,1.13,1ZM302,124.71c.42,0,.8-.1,1.15-.31.35-.21.63-.49.84-.84s.31-.74.31-1.15c0-.46-.12-.88-.37-1.26s-.58-.66-1.01-.84c-.31-.13-.75-.19-1.32-.19h-2.74v4.6h3.13Z" stroke="#000" stroke-miterlimit="10" stroke-width=".5"/>
      <path d="M220.42,128.02v-8.35h.44v2.36c.82,0,1.6.16,2.34.47.74.32,1.38.76,1.93,1.32s.98,1.21,1.27,1.94v-6.1h.44v8.35h-.44c0-1-.25-1.93-.74-2.78s-1.17-1.53-2.02-2.02-1.78-.74-2.78-.74v5.54h-.44Z" stroke="#000" stroke-miterlimit="10" stroke-width=".5"/>
      <g>
        <path d="M145.36,128.02c2.31,0,4.18-1.87,4.18-4.18s-1.87-4.18-4.18-4.18v8.35Z" stroke-width="0"/>
        <path d="M145.36,120.42c1.89,0,3.43,1.54,3.43,3.43s-1.54,3.43-3.43,3.43-3.43-1.54-3.43-3.43,1.54-3.43,3.43-3.43M145.36,119.67c-2.31,0-4.18,1.87-4.18,4.18s1.87,4.18,4.18,4.18,4.18-1.87,4.18-4.18-1.87-4.18-4.18-4.18h0Z" stroke-width="0"/>
      </g>
    </g>
  </g>
</svg>